<svg width="108" height="52" viewBox="0 0 108 52" fill="none" xmlns="http://www.w3.org/2000/svg">
<path d="M54.2596 51.7334H53.731C46.8769 51.7334 41.2915 46.1839 41.2915 39.3545V25.082C41.2915 18.2614 46.8681 12.7119 53.731 12.7119H54.2596C61.1137 12.7119 66.6991 18.2614 66.6991 25.082V39.3545C66.6991 46.1752 61.1225 51.7334 54.2596 51.7334ZM53.731 17.446C49.4935 17.446 46.0488 20.8739 46.0488 25.0908V39.3633C46.0488 43.5802 49.4935 47.008 53.731 47.008H54.2596C58.4972 47.008 61.9418 43.5802 61.9418 39.3633V25.0908C61.9418 20.8739 58.4972 17.446 54.2596 17.446H53.731Z" fill="#E94560"/>
<path d="M33.6097 51.7334H33.0811C26.227 51.7334 20.6416 46.1839 20.6416 39.3545V25.082C20.6416 18.2614 26.2182 12.7119 33.0811 12.7119H33.6097C40.4638 12.7119 46.0492 18.2614 46.0492 25.082V39.3545C46.0492 46.1752 40.4726 51.7334 33.6097 51.7334ZM33.0811 17.446C28.8436 17.446 25.3989 20.8739 25.3989 25.0908V39.3633C25.3989 43.5802 28.8436 47.008 33.0811 47.008H33.6097C37.8473 47.008 41.2919 43.5802 41.2919 39.3633V25.0908C41.2919 20.8739 37.8473 17.446 33.6097 17.446H33.0811Z" fill="#E94560"/>
<path d="M107.991 49.5417H103.234V25.0996C103.234 20.8827 99.7892 17.4549 95.5516 17.4549H95.023C90.7855 17.4549 87.3408 20.8827 87.3408 25.0996V39.3721H82.5835V25.0996C82.5835 18.2789 88.1601 12.7295 95.023 12.7295H95.5516C102.406 12.7295 107.991 18.2789 107.991 25.0996V49.5417Z" fill="#E94560"/>
<path d="M87.35 49.5417H82.5927V25.0996C82.5927 20.8827 79.148 17.4549 74.9105 17.4549H74.3819C70.1443 17.4549 66.6997 20.8827 66.6997 25.0996V39.3721H61.9424V25.0996C61.9424 18.2789 67.519 12.7295 74.3819 12.7295H74.9105C81.7646 12.7295 87.35 18.2789 87.35 25.0996V49.5417Z" fill="#E94560"/>
<path d="M32.8519 51.7336H8.6865C3.89394 51.7336 0 47.8586 0 43.0894V2.36719H4.75734V43.0894C4.75734 45.2461 6.51928 46.9995 8.6865 46.9995H32.8519V51.7336Z" fill="#E94560"/>
<path d="M84.971 51.9089C86.2847 51.9089 87.3496 50.8492 87.3496 49.5419C87.3496 48.2346 86.2847 47.1748 84.971 47.1748C83.6573 47.1748 82.5923 48.2346 82.5923 49.5419C82.5923 50.8492 83.6573 51.9089 84.971 51.9089Z" fill="#E94560"/>
<path d="M105.621 51.9089C106.935 51.9089 108 50.8492 108 49.5419C108 48.2346 106.935 47.1748 105.621 47.1748C104.308 47.1748 103.243 48.2346 103.243 49.5419C103.243 50.8492 104.308 51.9089 105.621 51.9089Z" fill="#E94560"/>
<path d="M2.37867 4.73413C3.69237 4.73413 4.75734 3.67436 4.75734 2.36706C4.75734 1.05977 3.69237 0 2.37867 0C1.06497 0 0 1.05977 0 2.36706C0 3.67436 1.06497 4.73413 2.37867 4.73413Z" fill="#E94560"/>
</svg>
