<svg width="518" height="301" viewBox="0 0 518 301" fill="none" xmlns="http://www.w3.org/2000/svg">
<path d="M260.218 299.6H257.666C224.786 299.6 198.044 272.886 198.044 240.041V171.36C198.044 138.515 224.786 111.802 257.666 111.802H260.218C293.098 111.802 319.84 138.515 319.84 171.36V240.041C319.84 272.886 293.098 299.6 260.218 299.6ZM257.666 134.569C237.351 134.569 220.836 151.082 220.836 171.36V240.041C220.836 260.334 237.351 276.833 257.666 276.833H260.218C280.533 276.833 297.049 260.319 297.049 240.041V171.36C297.049 151.067 280.533 134.569 260.218 134.569H257.666Z" fill="#E94560"/>
<path d="M161.214 299.6H158.661C125.782 299.6 99.04 272.886 99.04 240.041V171.36C99.04 138.515 125.782 111.802 158.661 111.802H161.214C194.094 111.802 220.836 138.515 220.836 171.36V240.041C220.836 272.886 194.094 299.6 161.214 299.6ZM158.677 134.569C138.362 134.569 121.846 151.082 121.846 171.36V240.041C121.846 260.334 138.362 276.833 158.677 276.833H161.229C181.544 276.833 198.06 260.319 198.06 240.041V171.36C198.06 151.067 181.544 134.569 161.229 134.569H158.677Z" fill="#E94560"/>
<path d="M517.848 289.021H495.057V171.36C495.057 151.067 478.541 134.569 458.227 134.569H455.674C435.359 134.569 418.844 151.082 418.844 171.36V240.041H396.052V171.36C396.052 138.515 422.794 111.802 455.674 111.802H458.227C491.106 111.802 517.848 138.515 517.848 171.36V289.021Z" fill="#E94560"/>
<path d="M418.844 289.021H396.053V171.36C396.053 151.067 379.537 134.569 359.222 134.569H356.67C336.355 134.569 319.839 151.082 319.839 171.36V240.041H297.048V171.36C297.048 138.515 323.79 111.802 356.67 111.802H359.222C392.102 111.802 418.844 138.515 418.844 171.36V289.021Z" fill="#E94560"/>
<path d="M157.567 299.6H41.682C18.7238 299.6 0.0351562 280.946 0.0351562 257.997V11.3835H22.8262V257.997C22.8262 268.379 31.2893 276.833 41.682 276.833H157.567V299.6Z" fill="#E94560"/>
<path d="M407.448 300.404C413.742 300.404 418.844 295.308 418.844 289.021C418.844 282.734 413.742 277.637 407.448 277.637C401.154 277.637 396.052 282.734 396.052 289.021C396.052 295.308 401.154 300.404 407.448 300.404Z" fill="#E94560"/>
<path d="M506.453 300.404C512.746 300.404 517.848 295.308 517.848 289.021C517.848 282.734 512.746 277.637 506.453 277.637C500.159 277.637 495.057 282.734 495.057 289.021C495.057 295.308 500.159 300.404 506.453 300.404Z" fill="#E94560"/>
<path d="M11.4307 22.7671C17.7243 22.7671 22.8262 17.6705 22.8262 11.3836C22.8262 5.09659 17.7243 0 11.4307 0C5.13711 0 0.0351562 5.09659 0.0351562 11.3836C0.0351562 17.6705 5.13711 22.7671 11.4307 22.7671Z" fill="#E94560"/>
</svg>
