<svg width="107" height="100" viewBox="0 0 107 100" fill="none" xmlns="http://www.w3.org/2000/svg">
<path d="M17.9647 0C17.2358 4.62978 16.1422 9.845 12.9899 13.0037C9.83788 16.1623 4.62706 17.2632 0 18.0003C4.62706 18.7377 9.83788 19.838 12.9899 22.9963C16.1422 26.155 17.2358 31.3711 17.9647 36C18.6979 31.3601 19.8025 26.1369 22.9677 22.9785C26.133 19.8189 31.3591 18.7236 36 18.0003C31.3591 17.2773 26.133 16.1811 22.9677 13.0224C19.8025 9.86312 18.6979 4.64083 17.9647 0Z" fill="white"/>
<path d="M56.902 0C54.8772 12.8605 51.8396 27.3472 43.0831 36.1213C34.3274 44.8954 19.853 47.9534 7 50.0009C19.853 52.0492 34.3274 55.1055 43.0831 63.8787C51.8396 72.6528 54.8772 87.1421 56.902 100C58.9387 87.1114 62.007 72.6025 70.7993 63.8292C79.5916 55.0526 94.1087 52.01 107 50.0009C94.1087 47.9926 79.5916 44.9474 70.7993 36.1733C62.007 27.3975 58.9387 12.8912 56.902 0Z" fill="white"/>
</svg>
