<svg width="100" height="107" viewBox="0 0 100 107" fill="none" xmlns="http://www.w3.org/2000/svg">
<path d="M0 89.0353C4.62978 89.7642 9.845 90.8578 13.0037 94.0101C16.1623 97.1621 17.2632 102.373 18.0003 107C18.7377 102.373 19.838 97.1621 22.9963 94.0101C26.155 90.8578 31.3711 89.7642 36 89.0353C31.3601 88.3021 26.1369 87.1975 22.9785 84.0323C19.8189 80.867 18.7236 75.6409 18.0003 71C17.2773 75.6409 16.1811 80.867 13.0224 84.0323C9.86312 87.1975 4.64083 88.3021 0 89.0353Z" fill="white"/>
<path d="M0 50.098C12.8605 52.1228 27.3472 55.1604 36.1213 63.9169C44.8954 72.6726 47.9534 87.147 50.0009 100C52.0492 87.147 55.1055 72.6726 63.8787 63.9169C72.6528 55.1604 87.1421 52.1228 100 50.098C87.1114 48.0613 72.6025 44.993 63.8292 36.2007C55.0526 27.4084 52.01 12.8913 50.0009 0C47.9926 12.8913 44.9474 27.4084 36.1733 36.2007C27.3975 44.993 12.8912 48.0613 0 50.098Z" fill="white"/>
</svg>
