<?xml version="1.0" encoding="UTF-8"?><svg id="Livello_2" xmlns="http://www.w3.org/2000/svg" viewBox="0 0 573.52 115.42"><defs><style>.cls-1{fill:#fff;stroke-width:0px;}</style></defs><g id="Livello_1-2"><path class="cls-1" d="M266.92,25.8c-8.6,0-15.95,3.73-21.5,12.33h-.23v-10.52h-13.13v87.81h13.35v-34.4c3.85,6.22,10.75,11.43,20.59,11.43,15.39,0,28.74-12.79,28.74-33.61,0-18.44-10.86-33.04-27.84-33.04ZM263.19,79.77c-10.18,0-17.99-8.49-17.99-20.59s7.81-20.71,17.99-20.71,17.65,8.71,17.65,20.71-7.36,20.59-17.65,20.59Z"/><path class="cls-1" d="M331.87,80.45c-9.84,0-17.65-6.56-18.67-17.77h47.64v-3.96c0-23.76-15.28-32.93-29.87-32.93-18.33,0-31.34,14.14-31.34,33.49s13.8,33.15,32.25,33.15c14.26,0,25.12-7.81,29.42-18.9l-12.56-4.98c-2.94,7.24-9.05,11.88-16.86,11.88ZM330.85,37.34c7.81,0,15.5,4.3,16.41,15.73h-33.38c1.58-9.28,7.69-15.73,16.97-15.73Z"/><path class="cls-1" d="M486.85,37.23h-.23c-3.96-6.79-11.09-11.54-20.25-11.54-15.39,0-28.85,12.79-28.85,33.49,0,18.56,10.98,33.15,28.85,33.15,8.26,0,16.29-3.39,21.05-11.2h.23v9.39h12.56V0h-13.35v37.23ZM469.2,79.66c-10.3,0-17.77-8.6-17.77-20.71s7.36-20.48,17.65-20.48,17.99,8.37,17.99,20.48-7.69,20.71-17.88,20.71Z"/><path class="cls-1" d="M541.38,25.8c-19.01,0-32.25,13.8-32.25,33.38s13.24,33.27,32.25,33.27,32.14-13.69,32.14-33.27-13.13-33.38-32.14-33.38ZM541.38,79.77c-10.75,0-18.22-8.6-18.22-20.59s7.47-20.71,18.22-20.71,18.22,8.6,18.22,20.71-7.47,20.59-18.22,20.59Z"/><path class="cls-1" d="M60.54,102.83c18.65,0,33.77-15.12,33.77-33.77H26.77c0,18.65,15.12,33.77,33.77,33.77Z"/><rect class="cls-1" y="15.3" width="26.77" height="53.76"/><rect class="cls-1" x="94.31" y="15.3" width="26.77" height="53.76"/><path class="cls-1" d="M207.08,64.66c0,3.06-.68,5.76-2.04,8.12s-3.24,4.19-5.64,5.51c-2.4,1.32-5.08,1.98-8.05,1.98s-5.78-.66-8.18-1.98c-2.4-1.32-4.28-3.16-5.64-5.51-1.36-2.35-2.04-5.06-2.04-8.12V27.61h-13.01v37.05c0,5.29,1.26,10.04,3.78,14.25,2.52,4.21,5.95,7.48,10.28,9.79,4.34,2.31,9.27,3.47,14.81,3.47s10.37-1.18,14.75-3.53c4.38-2.35,7.81-5.62,10.28-9.79,2.48-4.17,3.72-8.9,3.72-14.19V27.61h-13.01v37.05Z"/><path class="cls-1" d="M413.89,29.27c-4.34-2.31-9.27-3.47-14.81-3.47s-10.37,1.18-14.75,3.53c-4.38,2.35-7.81,5.62-10.28,9.79-2.48,4.17-3.72,8.9-3.72,14.19v37.05h13.01v-37.05c0-3.06.68-5.76,2.04-8.12,1.36-2.35,3.24-4.19,5.64-5.51,2.4-1.32,5.08-1.98,8.05-1.98s5.78.66,8.18,1.98c2.4,1.32,4.28,3.16,5.64,5.51,1.36,2.35,2.04,5.06,2.04,8.12v37.05h13.01v-37.05c0-5.29-1.26-10.04-3.78-14.25-2.52-4.21-5.95-7.48-10.28-9.79Z"/></g></svg>