<svg width="44" height="60" viewBox="0 0 44 60" fill="none" xmlns="http://www.w3.org/2000/svg">
<path d="M15.9138 5.47055V8.05079H9.31588V0.0587158H15.9138V2.88645H12.1436V5.47055H15.9138ZM22.6962 2.88645H25.332V0.0587158H18.7334C18.7334 0.0587158 18.7334 1.47809 18.7334 2.88645C19.6162 3.76922 20.0765 4.1918 21.3533 5.46856C20.6069 5.46856 18.7334 5.47102 18.7334 5.47102V8.05079H25.332V5.47055L22.6962 2.88645ZM32.0484 2.88645H34.6839V0.0587158H28.0856C28.0856 0.0587158 28.0856 1.47809 28.0856 2.88645C28.9681 3.76922 29.4287 4.1918 30.7053 5.46856C29.9594 5.46856 28.0856 5.47102 28.0856 5.47102V8.05079H34.684V5.47055L32.0484 2.88645ZM43.3744 11.8491L39.3663 55.2654L21.9999 59.9412L4.63319 55.2654L0.62561 11.8491H43.3744ZM35.2981 20.677H21.9842H8.43498L9.08291 25.9199H21.9842H22.7089L21.9842 26.2215L9.55448 31.3985L9.96674 36.5231L21.9842 36.5622L28.4252 36.5827L28.0126 43.416L21.9842 45.1133V45.1079L21.9347 45.1215L16.1124 43.6518L15.7591 39.4102H15.7399H10.3393H10.3203L11.0272 47.5988L21.9842 50.8389V50.833L22.0039 50.8389L32.9023 47.6577L34.3164 31.3986H21.9842H21.9537L21.9842 31.3855L34.7677 25.92L35.2981 20.677Z" fill="white"/>
</svg>
