<svg width="44" height="60" viewBox="0 0 44 60" fill="none" xmlns="http://www.w3.org/2000/svg">
<path d="M21.9741 59.8484L4.65851 55.0415L0.799805 11.7616H43.2003L39.3375 55.0347L21.9741 59.8484Z" fill="#264DE4"/>
<path d="M36.0305 52.2792L39.3315 15.3004H22V56.169L36.0305 52.2792Z" fill="#2965F1"/>
<path d="M9.64575 31.3523L10.1215 36.6603H22V31.3523H9.64575Z" fill="#EBEBEB"/>
<path d="M8.68982 20.6085L9.17235 25.9167H22V20.6085H8.68982Z" fill="#EBEBEB"/>
<path d="M22.0001 45.138L21.9768 45.1442L16.0652 43.5479L15.6873 39.3145H10.3588L11.1024 47.6489L21.9757 50.6674L22.0001 50.6606V45.138Z" fill="#EBEBEB"/>
<path d="M10.7784 0H17.2075V2.6885H13.4669V5.37701H17.2075V8.06551H10.7784V0Z" fill="white"/>
<path d="M18.4933 0H24.9223V2.33783H21.1818V2.80539H24.9223V8.1824H18.4933V5.72768H22.2338V5.26011H18.4933V0Z" fill="white"/>
<path d="M26.2081 0H32.6372V2.33783H28.8966V2.80539H32.6372V8.1824H26.2081V5.72768H29.9487V5.26011H26.2081V0Z" fill="white"/>
<path d="M34.3203 31.3522L35.2786 20.6085H21.9817V25.9167H29.4613L28.9783 31.3522H21.9817V36.6603H28.518L27.9019 43.5445L21.9817 45.1424V50.6648L32.8636 47.6489L32.9434 46.7521L34.1908 32.7776L34.3203 31.3522Z" fill="white"/>
</svg>
