<svg width="36" height="52" viewBox="0 0 36 52" fill="none" xmlns="http://www.w3.org/2000/svg">
<path fill-rule="evenodd" clip-rule="evenodd" d="M16.0002 4.19995H10.1002C6.84172 4.19995 4.20019 6.84147 4.20019 10.1C4.20019 13.3584 6.84172 16 10.1002 16H16.0002V4.19995ZM16.0002 0.199951H20.0002H25.9002C31.368 0.199951 35.8 4.63231 35.8 10.1C35.8 13.3265 34.2568 16.1926 31.8676 18C34.2568 19.8074 35.8 22.6734 35.8 25.9C35.8 31.3676 31.368 35.8 25.9002 35.8C23.6894 35.8 21.6479 35.0754 20.0002 33.8506V35.8V41.7C20.0002 47.1676 15.5678 51.6 10.1002 51.6C4.63256 51.6 0.200195 47.1676 0.200195 41.7C0.200195 38.4732 1.74372 35.6074 4.13268 33.8C1.74372 31.9926 0.200195 29.1265 0.200195 25.9C0.200195 22.6734 1.74375 19.8074 4.13275 18C1.74375 16.1926 0.200195 13.3265 0.200195 10.1C0.200195 4.63231 4.63256 0.199951 10.1002 0.199951H16.0002ZM20.0002 4.19995V16H25.9002C29.1588 16 31.8 13.3584 31.8 10.1C31.8 6.84147 29.1588 4.19995 25.9002 4.19995H20.0002ZM10.1002 31.7999H16.0002V25.9152V25.9V25.8848V20H10.1002C6.84172 20 4.20019 22.6415 4.20019 25.9C4.20019 29.1507 6.82907 31.7874 10.0768 31.8L10.1002 31.7999ZM4.20019 41.7C4.20019 38.4492 6.82907 35.8126 10.0768 35.8L10.1002 35.8H16.0002V41.7C16.0002 44.9584 13.3587 47.6 10.1002 47.6C6.84172 47.6 4.20019 44.9584 4.20019 41.7ZM20.0002 25.8882C20.0066 22.6352 22.6456 20 25.9002 20C29.1588 20 31.8 22.6415 31.8 25.9C31.8 29.1585 29.1588 31.8 25.9002 31.8C22.6456 31.8 20.0066 29.1648 20.0002 25.9118V25.8882Z" fill="white"/>
</svg>
