<svg width="30" height="46" viewBox="0 0 30 46" fill="none" xmlns="http://www.w3.org/2000/svg">
<path fill-rule="evenodd" clip-rule="evenodd" d="M15 23C15 18.8579 18.3579 15.5 22.5 15.5C26.6421 15.5 30 18.8579 30 23C30 27.1421 26.6421 30.5 22.5 30.5C18.3579 30.5 15 27.1421 15 23Z" fill="#1ABCFE"/>
<path fill-rule="evenodd" clip-rule="evenodd" d="M0 38C0 33.8579 3.35786 30.5 7.5 30.5H15V38C15 42.1421 11.6421 45.5 7.5 45.5C3.35786 45.5 0 42.1421 0 38Z" fill="#0ACF83"/>
<path fill-rule="evenodd" clip-rule="evenodd" d="M15 0.5V15.5H22.5C26.6421 15.5 30 12.1421 30 8C30 3.85786 26.6421 0.5 22.5 0.5H15Z" fill="#FF7262"/>
<path fill-rule="evenodd" clip-rule="evenodd" d="M0 8C0 12.1421 3.35786 15.5 7.5 15.5H15V0.5H7.5C3.35786 0.5 0 3.85786 0 8Z" fill="#F24E1E"/>
<path fill-rule="evenodd" clip-rule="evenodd" d="M0 23C0 27.1421 3.35786 30.5 7.5 30.5H15V15.5H7.5C3.35786 15.5 0 18.8579 0 23Z" fill="#A259FF"/>
</svg>
