<svg width="56" height="54" viewBox="0 0 56 54" fill="none" xmlns="http://www.w3.org/2000/svg">
<path d="M27.9997 0.117676C21.455 0.11791 15.1239 2.44713 10.1394 6.68814C5.15473 10.9292 1.84184 16.8056 0.793476 23.266C-0.254884 29.726 1.02973 36.3485 4.41738 41.9485C7.8048 47.5479 13.0745 51.7596 19.2833 53.8296C20.6614 54.0708 21.1782 53.2439 21.1782 52.5204C21.1782 51.8658 21.1438 49.6953 21.1438 47.3869C14.2187 48.6617 12.4271 45.6989 11.8759 44.1485C11.2642 42.6408 10.2946 41.3046 9.05074 40.2553C8.08605 39.7385 6.70793 38.4638 9.01629 38.4293C9.89777 38.5249 10.7429 38.8317 11.4807 39.3235C12.2183 39.8152 12.8268 40.4778 13.254 41.2545C13.6309 41.9316 14.1379 42.5278 14.7456 43.0088C15.3533 43.4897 16.0501 43.8462 16.7959 44.0571C17.5417 44.2683 18.3217 44.3304 19.0914 44.2397C19.8611 44.149 20.6054 43.9074 21.2814 43.5284C21.4007 42.127 22.0253 40.8169 23.0387 39.8419C16.9061 39.1528 10.4978 36.7756 10.4978 26.2329C10.4591 23.4938 11.4697 20.8435 13.3229 18.8257C12.4804 16.4449 12.5788 13.8321 13.5986 11.5217C13.5986 11.5217 15.9067 10.7981 21.1782 14.3468C25.6881 13.1065 30.4492 13.1065 34.9593 14.3468C40.2306 10.7637 42.5389 11.5217 42.5389 11.5217C43.5587 13.8321 43.6574 16.4449 42.8146 18.8257C44.6729 20.8399 45.685 23.4928 45.6397 26.2329C45.6397 36.81 39.197 39.1528 33.0643 39.8419C33.722 40.5085 34.2285 41.3091 34.5496 42.1887C34.8707 43.0688 34.9986 44.0074 34.9248 44.941C34.9248 48.6277 34.8903 51.5902 34.8903 52.5204C34.8903 53.2439 35.4071 54.1053 36.7853 53.8296C42.9831 51.743 48.2375 47.5214 51.6107 41.9189C54.984 36.3162 56.2562 29.697 55.2006 23.243C54.145 16.7892 50.8302 10.9205 45.8476 6.68463C40.8653 2.44854 34.5395 0.121191 27.9997 0.117676Z" fill="white"/>
</svg>
