<svg width="44" height="60" viewBox="0 0 44 60" fill="none" xmlns="http://www.w3.org/2000/svg">
<path d="M4.73471 0.0587158H7.43377V2.72543H9.90279V0.0587158H12.6021V8.13399H9.90303V5.42977H7.434V8.13399H4.73494V0.0587158H4.73471ZM16.1513 2.73668H13.7754V0.0587158H21.2278V2.73668H18.8506V8.13399H16.1516V2.73668H16.1513ZM22.4105 0.0587158H25.2253L26.9563 2.89618L28.6858 0.0587158H31.501V8.13399H28.813V4.13157L26.9562 7.00266H26.9099L25.0517 4.13157V8.13399H22.4105V0.0587158ZM32.8446 0.0587158H35.5444V5.46493H39.3402V8.13399H32.8446V0.0587158ZM0.787598 11.8273L4.64846 55.1319L21.9739 59.9413L39.3474 55.125L43.2124 11.8272L0.787598 11.8273ZM35.1589 22.1039L34.9172 24.7965L34.811 25.9904H34.7935H22.0001H21.9815H14.4867L14.9721 31.4288H21.9815H22.0001H32.8962H34.3275L34.1979 32.8552L32.9498 46.838L32.8699 47.7347L22.0001 50.7475V50.7484L21.9757 50.7553L11.0961 47.7349L10.3519 39.3957H12.8093H15.6835L16.0617 43.6316L21.9766 45.2291L21.9815 45.2276V45.2271L27.9055 43.6287L28.5215 36.7403H22.0001H21.9815H10.1147L8.80932 22.1039L8.68217 20.6793H21.9815H22.0001H35.2861L35.1589 22.1039Z" fill="white"/>
</svg>
