<svg width="44" height="60" viewBox="0 0 44 60" fill="none" xmlns="http://www.w3.org/2000/svg">
<path d="M43.2003 11.7616L39.3375 55.0347L21.9741 59.8484L4.65851 55.0415L0.799805 11.7616H43.2003Z" fill="#E44D26"/>
<path d="M22 56.169L36.0305 52.2792L39.3315 15.3004H22V56.169Z" fill="#F16529"/>
<path d="M14.4909 25.9167H22V20.6085H8.68982L8.81688 22.0326L10.1215 36.6603H22V31.3522H14.976L14.4909 25.9167Z" fill="#EBEBEB"/>
<path d="M15.6873 39.3145H10.3588L11.1024 47.6489L21.9757 50.6674L22.0001 50.6606V45.138L21.9768 45.1442L16.0652 43.5479L15.6873 39.3145Z" fill="#EBEBEB"/>
<path d="M4.74475 0H7.44225V2.66512H9.90983V0H12.6075V8.07065H9.90995V5.36812H7.44237V8.07065H4.74487L4.74475 0Z" fill="white"/>
<path d="M16.1548 2.67635H13.78V0H21.2284V2.67635H18.8525V8.07065H16.1549L16.1548 2.67635Z" fill="white"/>
<path d="M22.4104 0H25.2232L26.9534 2.83579L28.6819 0H31.4957V8.07065H28.8093V4.07039L26.9534 6.93996H26.907L25.0498 4.07039V8.07065H22.4104V0Z" fill="white"/>
<path d="M32.8383 0H35.5366V5.40296H39.3301V8.07065H32.8383V0Z" fill="white"/>
<path d="M21.9817 36.6603H28.518L27.9019 43.5445L21.9817 45.1424V50.6649L32.8636 47.6489L32.9434 46.7522L34.1908 32.7777L34.3203 31.3523H21.9817V36.6603Z" fill="white"/>
<path d="M21.9817 25.9037V25.9167H34.8033L34.9098 24.7236L35.1516 22.0326L35.2786 20.6085H21.9817V25.9037Z" fill="white"/>
</svg>
