<svg width="60" height="60" viewBox="0 0 60 60" fill="none" xmlns="http://www.w3.org/2000/svg">
<path fill-rule="evenodd" clip-rule="evenodd" d="M0.118173 0C0.051376 0.00972656 0.0562979 0.0902344 0.0611026 0.170859C0.0611026 20.0538 0.0611026 39.9338 0.0611026 59.8163C19.9084 59.9493 39.9995 59.8352 59.9415 59.8732C59.9415 39.9151 59.9415 19.958 59.9415 0C40.0011 0 20.0587 0 0.118173 0ZM30.4563 52.9297C29.0709 54.3265 26.8846 55.149 24.195 55.149C19.7838 55.149 17.3345 52.9998 15.7711 50.0266C17.2761 49.0657 18.814 48.1373 20.3818 47.2382C21.0211 49.0267 23.1809 51.0374 25.6181 49.7995C27.1629 49.0145 26.9846 46.6343 26.9846 44.051C26.9846 38.687 26.9846 32.4989 26.9846 27.6598C26.9797 27.5791 26.9749 27.4986 27.0411 27.4889C28.8817 27.4889 30.7223 27.4889 32.5625 27.4889C32.5625 31.8 32.5625 36.6766 32.5625 41.2618C32.5625 46.2538 32.9192 50.4478 30.4563 52.9297ZM55.1597 47.9786C54.8464 52.6525 51.0297 55.1344 45.882 55.149C40.8357 55.1636 37.6057 52.9209 35.6359 49.4576C37.0522 48.4829 38.6568 47.6978 40.133 46.7831C41.3143 48.6301 43.36 50.4054 46.3942 50.1408C48.2846 49.976 50.4789 48.4351 49.2401 46.0999C48.6393 44.9679 47.1875 44.3929 45.882 43.8236C41.7392 42.0161 36.8787 40.3582 37.3436 33.8636C37.4991 31.6939 38.4981 30.1692 39.7915 29.0828C41.117 27.9695 42.8923 27.2234 45.2559 27.1479C49.5483 27.0104 51.9031 28.9198 53.5093 31.5874C52.1424 32.6293 50.6365 33.5337 49.1263 34.4329C48.6307 32.91 46.2384 31.4261 44.2312 32.3271C43.3184 32.7364 42.4982 33.9397 42.9791 35.4002C43.4081 36.7028 45.1575 37.4157 46.565 38.0187C50.825 39.8421 55.5857 41.6242 55.1597 47.9786Z" fill="white"/>
</svg>
