<svg width="60" height="61" viewBox="0 0 60 61" fill="none" xmlns="http://www.w3.org/2000/svg">
<path fill-rule="evenodd" clip-rule="evenodd" d="M0.0595791 0.941406C-0.00721773 0.951133 -0.00229585 1.03164 0.00250884 1.11227C0.00250884 20.9952 0.00250884 40.8752 0.00250884 60.7577C19.8499 60.8907 39.9409 60.7766 59.8829 60.8146C59.8829 40.8565 59.8829 20.8994 59.8829 0.941406C39.9425 0.941406 20.0001 0.941406 0.0595791 0.941406ZM30.3977 53.8711C29.0123 55.2679 26.826 56.0904 24.1365 56.0904C19.7252 56.0904 17.2759 53.9412 15.7125 50.968C17.2175 50.0071 18.7554 49.0787 20.3232 48.1796C20.9625 49.9681 23.1223 51.9788 25.5595 50.7409C27.1043 49.9559 26.926 47.5757 26.926 44.9924C26.926 39.6284 26.926 33.4403 26.926 28.6012C26.9211 28.5205 26.9163 28.44 26.9825 28.4303C28.8231 28.4303 30.6637 28.4303 32.5039 28.4303C32.5039 32.7414 32.5039 37.618 32.5039 42.2032C32.5039 47.1952 32.8606 51.3892 30.3977 53.8711ZM55.1011 48.92C54.7878 53.5939 50.9711 56.0758 45.8234 56.0904C40.7771 56.105 37.5472 53.8623 35.5773 50.399C36.9936 49.4243 38.5982 48.6392 40.0744 47.7245C41.2557 49.5715 43.3014 51.3468 46.3356 51.0822C48.226 50.9174 50.4203 49.3765 49.1815 47.0413C48.5807 45.9093 47.1289 45.3343 45.8234 44.765C41.6806 42.9575 36.8201 41.2996 37.285 34.805C37.4405 32.6354 38.4395 31.1106 39.7329 30.0242C41.0584 28.9109 42.8337 28.1648 45.1973 28.0893C49.4897 27.9518 51.8445 29.8612 53.4507 32.5288C52.0838 33.5707 50.5779 34.4751 49.0677 35.3743C48.5722 33.8514 46.1798 32.3675 44.1726 33.2685C43.2598 33.6779 42.4396 34.8811 42.9206 36.3416C43.3495 37.6442 45.099 38.3571 46.5064 38.9601C50.7664 40.7835 55.5271 42.5656 55.1011 48.92Z" fill="#FFCA28"/>
</svg>
