<svg width="1366" height="1366" viewBox="0 0 1366 1366" fill="none" xmlns="http://www.w3.org/2000/svg">
<path d="M638.004 1.06629C635.071 1.33293 625.738 2.26618 617.339 2.93278C423.624 20.3977 242.176 124.921 127.253 285.572C63.2597 374.896 22.3303 476.22 6.86516 583.543C1.39902 621.006 0.732422 632.071 0.732422 682.866C0.732422 733.661 1.39902 744.727 6.86516 782.19C43.9282 1038.3 226.177 1253.48 473.353 1333.2C517.615 1347.47 564.277 1357.2 617.339 1363.07C638.004 1365.33 727.328 1365.33 747.993 1363.07C839.584 1352.93 917.176 1330.27 993.702 1291.21C1005.43 1285.21 1007.7 1283.61 1006.1 1282.27C1005.03 1281.47 955.039 1214.41 895.045 1133.36L785.989 986.037L649.336 783.79C574.143 672.601 512.282 581.676 511.749 581.676C511.216 581.543 510.683 671.401 510.416 781.124C510.016 973.238 509.883 980.971 507.483 985.504C504.017 992.036 501.35 994.703 495.751 997.636C491.485 999.769 487.752 1000.17 467.62 1000.17H444.556L438.423 996.302C434.423 993.769 431.49 990.436 429.491 986.57L426.691 980.571L426.958 713.263L427.357 445.823L431.49 440.623C433.624 437.824 438.156 434.224 441.356 432.491C446.822 429.824 448.955 429.558 472.02 429.558C499.217 429.558 503.75 430.624 510.816 438.357C512.816 440.49 586.809 551.946 675.333 686.199C763.858 820.453 884.913 1003.77 944.374 1093.76L1052.36 1257.34L1057.83 1253.74C1106.22 1222.28 1157.42 1177.48 1197.95 1130.82C1284.21 1031.77 1339.8 910.978 1358.47 782.19C1363.93 744.727 1364.6 733.661 1364.6 682.866C1364.6 632.071 1363.93 621.006 1358.47 583.543C1321.4 327.434 1139.15 112.255 891.979 32.5299C848.383 18.3979 801.988 8.66555 749.993 2.79946C737.194 1.46626 649.069 -0.000268408 638.004 1.06629ZM917.176 413.559C923.576 416.759 928.775 422.892 930.642 429.291C931.708 432.757 931.975 506.884 931.708 673.934L931.308 913.644L889.046 848.85L846.65 784.057V609.807C846.65 497.151 847.183 433.824 847.983 430.758C850.116 423.292 854.782 417.426 861.182 413.959C866.648 411.16 868.648 410.893 889.579 410.893C909.31 410.893 912.777 411.16 917.176 413.559Z" fill="white"/>
<path d="M1045.7 1260.28C1041.03 1263.21 1039.56 1265.21 1043.7 1262.94C1046.63 1261.21 1051.43 1257.61 1050.63 1257.48C1050.23 1257.48 1047.96 1258.81 1045.7 1260.28ZM1036.5 1266.28C1034.1 1268.14 1034.1 1268.28 1037.03 1266.81C1038.63 1266.01 1039.96 1265.08 1039.96 1264.81C1039.96 1263.74 1039.3 1264.01 1036.5 1266.28ZM1029.83 1270.28C1027.43 1272.14 1027.43 1272.28 1030.37 1270.81C1031.97 1270.01 1033.3 1269.08 1033.3 1268.81C1033.3 1267.74 1032.63 1268.01 1029.83 1270.28ZM1023.17 1274.28C1020.77 1276.14 1020.77 1276.28 1023.7 1274.81C1025.3 1274.01 1026.63 1273.08 1026.63 1272.81C1026.63 1271.74 1025.97 1272.01 1023.17 1274.28ZM1013.03 1279.61C1007.97 1282.28 1008.23 1283.34 1013.3 1280.81C1015.57 1279.61 1017.3 1278.41 1017.3 1278.14C1017.3 1277.21 1017.17 1277.34 1013.03 1279.61Z" fill="white"/>
</svg>
