<svg width="46" height="41" viewBox="0 0 46 41" fill="none" xmlns="http://www.w3.org/2000/svg">
<path d="M23.0009 24.1559C25.3194 24.1559 27.199 22.2763 27.199 19.9578C27.199 17.6392 25.3194 15.7596 23.0009 15.7596C20.6823 15.7596 18.8027 17.6392 18.8027 19.9578C18.8027 22.2763 20.6823 24.1559 23.0009 24.1559Z" fill="white"/>
<path fill-rule="evenodd" clip-rule="evenodd" d="M23.3093 11.1087C30.4671 11.1575 38.2765 11.6797 43.6371 16.46C43.7946 16.6006 43.9465 16.7469 44.0946 16.8978C45.3593 18.1869 46.0203 20.2681 44.9993 21.9809C42.9049 25.4975 38.2212 27.0312 33.6865 27.9753C26.9046 29.3872 19.8134 29.3984 13.0343 28.1553C9.13339 27.4391 5.14432 26.1837 2.37214 23.5578C1.29307 22.5359 0.370573 21.1916 0.514948 19.6953C0.749323 17.2747 3.07151 15.7212 5.0262 14.6694C10.4553 11.7481 17.0703 11.0947 23.3093 11.1087ZM22.7899 12.2084C16.0174 12.2544 8.68714 12.6866 3.45776 17.0169C3.27495 17.1678 3.0987 17.3262 2.92901 17.4922C2.81932 17.5991 2.71339 17.7106 2.6112 17.825C1.69339 18.8562 1.37745 20.5128 2.2437 21.7512C3.11557 22.9972 4.43932 23.8962 5.80245 24.6294C10.9006 27.3706 16.9249 27.8572 22.7984 27.8778C28.7449 27.8994 34.8771 27.3575 40.1299 24.6416C42.2224 23.5587 44.5774 21.9687 44.494 19.9212C44.4171 18.0425 42.5853 16.8819 41.2137 16.0531C40.8425 15.8291 40.4609 15.6219 40.0737 15.4269C34.8593 12.8141 28.7487 12.1953 22.7899 12.2084Z" fill="white"/>
<path fill-rule="evenodd" clip-rule="evenodd" d="M32.4828 0.0340134C35.1012 0.100576 36.4578 3.2487 36.6369 5.5737C36.6725 6.03589 36.6856 6.49995 36.68 6.96401C36.6744 7.46651 36.6472 7.96901 36.6031 8.46964C36.0509 14.6684 33.2206 20.5718 29.8878 26.0234C26.6281 31.3559 22.6531 36.6734 17.2456 39.1446C15.4578 39.9621 13.3316 40.4665 11.7491 39.5543C9.57969 38.3046 9.3425 35.3815 9.38281 33.1643C9.39312 32.6196 9.42875 32.0749 9.485 31.5321C10.3184 23.5071 14.3862 15.905 19.4769 9.35558C22.4469 5.53433 25.9803 1.74401 30.3819 0.371513C31.0747 0.154951 31.625 0.0237009 32.4828 0.0340134ZM32.3572 1.13276C29.2831 1.18151 26.5231 3.45964 24.0791 5.82683C17.6534 12.049 12.9181 20.3243 11.0131 29.0028C10.8659 29.675 10.7422 30.3518 10.6512 31.0334C10.5809 31.5612 10.5294 32.0918 10.5022 32.6243C10.4806 33.0481 10.4731 33.4728 10.4862 33.8975C10.4956 34.2293 10.5172 34.5612 10.5537 34.8912C10.5809 35.1434 10.6175 35.3946 10.6634 35.644C10.6981 35.8287 10.7384 36.0125 10.7853 36.1953C10.8237 36.3434 10.8669 36.4906 10.9156 36.6368C11.2991 37.7928 12.2872 38.8971 13.6137 38.9337C16.7084 39.0181 19.6222 36.7615 22.1412 34.309C26.5634 30.005 29.8587 24.5965 32.4331 18.9115C34.5106 14.3215 36.4109 9.33214 35.3497 4.27995C35.3094 4.0887 35.2625 3.89933 35.2091 3.71183C35.165 3.55901 35.1153 3.40808 35.0609 3.25901C34.6484 2.13495 33.6781 1.12995 32.3572 1.13276Z" fill="white"/>
<path fill-rule="evenodd" clip-rule="evenodd" d="M13.7271 0.0752786C17.0683 0.139966 20.0693 2.40778 22.7337 4.94747C27.5955 9.58153 31.1815 15.4765 33.9021 21.6809C36.0096 26.4875 37.9483 31.8828 36.2252 36.9547C35.6824 38.5531 34.309 40.0156 32.478 40.0531C29.1208 40.1206 26.0093 37.6793 23.3093 35.0515C16.5358 28.4572 11.5071 19.7515 9.78397 10.519C9.66022 9.85903 9.56178 9.1934 9.49428 8.52497C9.43897 7.97934 9.40428 7.4309 9.39491 6.88247C9.38741 6.43997 9.39678 5.99747 9.42772 5.55684C9.44834 5.26247 9.47834 4.96997 9.51866 4.6784C9.55709 4.40465 9.60584 4.13184 9.66678 3.86184C9.70709 3.68278 9.75209 3.50559 9.80366 3.32934C10.309 1.60153 11.6233 0.0621536 13.7271 0.0752786ZM13.6005 1.17497C11.644 1.21809 10.7487 3.52528 10.5687 5.14434C10.5321 5.47622 10.5096 5.8109 10.4993 6.14559C10.4862 6.57309 10.4918 7.00153 10.5133 7.42903C10.8208 13.6156 13.5865 19.5968 16.924 25.0737C20.0665 30.23 23.8615 35.3656 29.0815 38.0056C30.589 38.7678 32.4208 39.3668 33.723 38.6468C35.3562 37.7431 35.5568 35.5897 35.644 33.9847C35.6674 33.5478 35.6702 33.109 35.6562 32.6712C35.6393 32.1218 35.5962 31.5734 35.5315 31.0278C34.9296 25.9306 32.6721 21.1072 30.079 16.549C26.8521 10.879 22.8987 5.22778 17.3037 2.27559C16.1449 1.66434 14.8905 1.16465 13.6005 1.17497Z" fill="white"/>
</svg>
