<svg width="50" height="58" viewBox="0 0 50 58" fill="none" xmlns="http://www.w3.org/2000/svg">
<path d="M47.3343 0.114624L47.2819 0.170643C48.6526 0.170643 49.4913 1.2329 49.5381 2.53252L49.5401 2.64779V46.8495C49.5401 48.2143 48.7435 49.0492 47.4597 49.0985L47.3378 49.1008H17.6297L9.49623 57.8855V49.0448H2.94539C1.62854 49.0448 0.526093 48.2499 0.462379 46.9658L0.459473 46.8477V2.59177C0.459473 1.27782 1.52677 0.177336 2.88436 0.117211L3.00138 0.114624H47.3343ZM32.2019 9.12337H9.49623V40.6557H29.4919C31.0167 40.6557 32.4855 40.3739 33.8405 40.0361C35.1068 39.7746 36.2237 39.2158 37.2394 38.5945L37.4555 38.4604C38.4022 37.8952 39.1965 37.1093 39.7716 36.1712L39.8837 35.9816H39.8259C40.3896 34.9697 40.6732 33.7863 40.6732 32.3788C40.6732 30.1835 40.1638 28.4363 39.1467 27.0849C38.0753 25.7911 36.6625 24.8896 34.8558 24.3836C36.2902 23.7724 37.4814 22.703 38.2434 21.3428C38.9786 19.9913 39.3743 18.5838 39.3743 17.1203C39.3991 15.1299 38.7188 13.1951 37.4538 11.6583C36.8323 10.9248 36.0411 10.3068 35.1955 9.85516C34.3508 9.38291 33.4588 9.15472 32.4255 9.12638L32.2019 9.12337ZM28.9563 26.747C29.6092 26.747 30.0994 27.0656 30.5353 27.5995C30.9389 28.156 31.1491 28.8292 31.1341 29.5165C31.1341 30.3148 30.8609 30.9537 30.4268 31.3809C29.9716 31.7759 29.4229 32.0336 28.824 32.0683L28.6849 32.0724H17.6384V26.747H28.9563ZM28.0319 16.0944C28.5514 16.0994 29.0525 16.2879 29.4464 16.6266C29.8281 16.9994 30.0451 17.5859 30.0451 18.3842C30.0451 19.239 29.8515 19.9049 29.4171 20.2446L29.3379 20.3012C28.9355 20.5969 28.4406 20.8464 27.9401 20.883L27.8148 20.8876H17.6367V16.0944H28.0319Z" fill="#0AB3AF"/>
</svg>
