<svg width="52" height="60" viewBox="0 0 52 60" fill="none" xmlns="http://www.w3.org/2000/svg">
<path d="M30.8825 28.655H18.72V34.505H30.59C31.2925 34.505 31.935 34.21 32.4625 33.7425C32.93 33.275 33.2225 32.5725 33.2225 31.695C33.2396 30.9426 33.0143 30.2046 32.58 29.59C32.11 29.005 31.585 28.655 30.8825 28.655ZM31.2925 21.58C31.8175 21.23 32.0525 20.4675 32.0525 19.4725C32.0525 18.5975 31.8175 17.9525 31.41 17.545C30.9899 17.1741 30.4504 16.9665 29.89 16.96H18.72V22.2225H29.655C30.24 22.2225 30.825 21.93 31.2925 21.58ZM49.1275 0H3.22503C1.76253 0 0.592529 1.17 0.592529 2.575V48.5375C0.592529 49.9425 1.76253 50.8175 3.16753 50.8175H9.95003V60L18.37 50.875H49.13C50.535 50.875 51.4125 50 51.4125 48.5375V2.6325C51.4125 1.2275 50.535 0.0575 49.0725 0.0575L49.1275 0ZM41.41 37.25C40.808 38.311 39.9415 39.1981 38.895 39.825C37.7825 40.525 36.555 41.17 35.1525 41.4625C33.7475 41.8125 32.2275 42.105 30.65 42.105H9.94753V9.355H33.455C34.625 9.355 35.62 9.59 36.555 10.1175C37.4325 10.585 38.2525 11.2275 38.895 11.9875C40.205 13.5875 40.91 15.595 40.8825 17.6625C40.8825 19.1825 40.4725 20.6425 39.7125 22.0475C38.9246 23.4588 37.6911 24.5692 36.205 25.205C38.075 25.73 39.5375 26.6675 40.65 28.0125C41.7 29.415 42.2275 31.2275 42.2275 33.51C42.2275 34.97 41.935 36.2 41.3525 37.2525L41.41 37.25Z" fill="white"/>
</svg>
